<svg xmlns="http://www.w3.org/2000/svg" xmlns:xlink="http://www.w3.org/1999/xlink" aria-hidden="true" role="img" width="1em" height="1em" preserveAspectRatio="xMidYMid meet" viewBox="0 0 20 20"><g fill="#8B5CF6"><path fill-rule="evenodd" clip-rule="evenodd" d="M5.5 2a3.5 3.5 0 1 0 1.665 6.58L8.585 10l-1.42 1.42a3.5 3.5 0 1 0 1.414 1.414l8.128-8.127a1 1 0 0 0-1.414-1.414L10 8.586l-1.42-1.42A3.5 3.5 0 0 0 5.5 2zM4 5.5a1.5 1.5 0 1 1 3 0a1.5 1.5 0 0 1-3 0zm0 9a1.5 1.5 0 1 1 3 0a1.5 1.5 0 0 1-3 0z" fill="#8B5CF6"/><path d="M12.828 11.414a1 1 0 0 0-1.414 1.414l3.879 3.88a1 1 0 0 0 1.414-1.415l-3.879-3.879z" fill="#8B5CF6"/></g></svg>